<?xml version="1.0" encoding="utf-8"?>
<!-- Generator: Adobe Illustrator 23.1.0, SVG Export Plug-In . SVG Version: 6.00 Build 0)  -->
<svg version="1.1" id="Laag_1" xmlns="http://www.w3.org/2000/svg" xmlns:xlink="http://www.w3.org/1999/xlink" x="0px" y="0px"
	 viewBox="0 0 96 96" style="enable-background:new 0 0 96 96;" xml:space="preserve">
<style type="text/css">
	
		.st0{fill-rule:evenodd;clip-rule:evenodd;fill:#5C5C5C;stroke:#5C5C5C;stroke-width:0;stroke-linecap:square;stroke-miterlimit:10;}
	.st1{fill:none;stroke:#010202;stroke-width:0;stroke-linecap:square;stroke-miterlimit:10;}
	
		.st2{fill-rule:evenodd;clip-rule:evenodd;fill:#010202;stroke:#010202;stroke-width:0;stroke-linecap:square;stroke-miterlimit:10;}
</style>
<g>
	<rect x="82.4" y="70.5" transform="matrix(0.6233 -0.782 0.782 0.6233 -25.864 92.8417)" class="st0" width="2.1" height="5.4"/>
	<rect x="75.5" y="64.8" transform="matrix(0.623 -0.7822 0.7822 0.623 -24.1788 85.4969)" class="st0" width="2.1" height="6"/>
	<rect x="68.5" y="59.2" transform="matrix(0.623 -0.7822 0.7822 0.623 -22.4388 77.8766)" class="st0" width="2.1" height="6"/>
	<rect x="61.5" y="53.6" transform="matrix(0.624 -0.7814 0.7814 0.624 -20.7169 70.1623)" class="st0" width="2.1" height="6"/>
	<polygon class="st0" points="57.2,53.7 52.5,50 53.8,48.3 58.5,52 	"/>
	<rect x="47.4" y="42.4" transform="matrix(0.623 -0.7822 0.7822 0.623 -17.2261 55.0191)" class="st0" width="2.1" height="6"/>
	
		<rect x="40.6" y="37.2" transform="matrix(0.6241 -0.7813 0.7813 0.6241 -15.5562 47.5628)" class="st0" width="2.1" height="5.4"/>
	<polyline class="st1" points="16.2,14.4 16,14 15.6,13.8 15.2,13.7 14.7,13.7 14.3,13.9 14,14.2 	"/>
	<polyline class="st1" points="15.5,6.7 15.4,6.5 15.2,6.3 14.9,6.3 14.7,6.5 14.6,6.7 	"/>
	<polyline class="st1" points="10.1,18.5 10,18.7 10,19 10.1,19.2 10.4,19.2 10.6,19.2 	"/>
	<line class="st1" x1="10.1" y1="18.5" x2="14" y2="14.2"/>
	<line class="st1" x1="10.6" y1="19.2" x2="15.7" y2="16.3"/>
	<line class="st1" x1="15.5" y1="6.7" x2="16.4" y2="14.9"/>
	<line class="st1" x1="14.6" y1="6.7" x2="13.7" y2="14.8"/>
	<polyline class="st1" points="4.1,17.1 4.5,18.6 5,19.9 5.8,21.2 6.7,22.4 7.8,23.5 9,24.4 10.3,25.1 11.7,25.7 13.1,26 14.6,26.2 
		16.1,26.1 17.6,25.9 19,25.4 20.4,24.8 21.7,24 22.8,23 23.8,21.9 24.6,20.7 25.3,19.3 25.8,17.9 26.1,16.4 26.1,14.9 26,13.4 
		25.7,12 25.2,10.6 24.5,9.2 23.6,8 22.6,6.9 21.4,6 20.2,5.2 18.8,4.6 17.3,4.2 15.8,4 	"/>
	<polyline class="st1" points="26.1,15.1 26,13.6 25.8,12.1 25.3,10.7 24.6,9.4 23.8,8.2 22.8,7.1 21.6,6.1 20.4,5.3 19,4.7 
		17.6,4.3 16.1,4 14.7,4 13.2,4.1 11.7,4.5 10.3,5 9,5.7 7.9,6.6 6.8,7.6 5.9,8.8 5.1,10.1 4.5,11.4 4.1,12.9 3.9,14.3 3.9,15.8 
		4.1,17.3 4.5,18.7 5.1,20.1 5.9,21.4 6.8,22.5 7.9,23.6 9,24.4 10.3,25.2 11.7,25.7 13.2,26 14.7,26.2 16.1,26.1 17.6,25.9 
		19,25.4 20.4,24.8 21.6,24 22.8,23.1 23.8,22 24.6,20.7 25.3,19.4 25.8,18 26,16.6 26.1,15.1 	"/>
	<polyline class="st1" points="24.5,15.1 24.4,13.7 24.1,12.4 23.6,11.1 22.9,9.9 22.1,8.8 21.1,7.8 19.9,7 18.7,6.4 17.4,5.9 
		16.1,5.7 14.7,5.6 13.3,5.8 12,6.1 10.7,6.7 9.5,7.4 8.5,8.3 7.5,9.3 6.8,10.4 6.2,11.7 5.8,13 5.6,14.4 5.6,15.8 5.8,17.1 
		6.2,18.5 6.8,19.7 7.5,20.9 8.5,21.9 9.5,22.8 10.7,23.5 12,24 13.3,24.4 14.7,24.5 16.1,24.5 17.4,24.2 18.7,23.8 19.9,23.1 
		21.1,22.3 22.1,21.4 22.9,20.3 23.6,19.1 24.1,17.8 24.4,16.4 24.5,15.1 	"/>
	<polyline class="st1" points="16.4,15.1 16.3,14.6 16.1,14.1 15.6,13.8 15.2,13.7 14.7,13.7 14.2,14 13.9,14.4 13.7,14.8 
		13.7,15.3 13.9,15.8 14.2,16.2 14.7,16.4 15.2,16.4 15.6,16.3 16.1,16 16.3,15.6 16.4,15.1 	"/>
	<polygon class="st2" points="4,16.1 3.9,15.1 4,14.3 	"/>
	<polygon class="st2" points="4,16.1 4,14.3 4,16.4 	"/>
	<polygon class="st2" points="4,16.4 4,14.3 4,13.7 	"/>
	<polygon class="st2" points="4,16.4 4,13.7 4.1,17.1 	"/>
	<polygon class="st2" points="4.1,17.1 4,13.7 4.1,13.2 	"/>
	<polygon class="st2" points="4.1,17.1 4.1,13.2 4.3,17.8 	"/>
	<polygon class="st2" points="4.3,17.8 4.1,13.2 4.3,12.3 	"/>
	<polygon class="st2" points="4.3,17.8 4.3,12.3 4.5,18.5 	"/>
	<polygon class="st2" points="4.5,18.5 4.3,12.3 4.5,11.7 	"/>
	<polygon class="st2" points="4.5,18.5 4.5,11.7 4.7,19.1 	"/>
	<polygon class="st2" points="4.7,19.1 4.5,11.7 4.7,11 	"/>
	<polygon class="st2" points="4.7,19.1 4.7,11 5,19.9 	"/>
	<polygon class="st2" points="5,19.9 4.7,11 5,10.3 	"/>
	<polygon class="st2" points="5,19.9 5,10.3 5.3,20.4 	"/>
	<polygon class="st2" points="5.3,20.4 5,10.3 5.3,9.7 	"/>
	<polygon class="st2" points="5.3,20.4 5.3,9.7 5.6,20.9 	"/>
	<polygon class="st2" points="5.6,20.9 5.3,9.7 5.6,9.3 	"/>
	<polygon class="st2" points="5.6,20.9 5.6,15.1 5.7,21.1 	"/>
	<polygon class="st2" points="5.7,21.1 5.6,15.1 5.7,16.4 	"/>
	<polygon class="st2" points="5.6,15.1 5.6,9.3 5.7,13.7 	"/>
	<polygon class="st2" points="5.7,13.7 5.6,9.3 5.7,9.1 	"/>
	<polygon class="st2" points="5.7,21.1 5.7,16.4 5.8,21.2 	"/>
	<polygon class="st2" points="5.8,21.2 5.7,16.4 5.8,16.9 	"/>
	<polygon class="st2" points="5.7,13.7 5.7,9.1 5.8,13.3 	"/>
	<polygon class="st2" points="5.8,13.3 5.7,9.1 5.8,9 	"/>
	<polygon class="st2" points="5.8,21.2 5.8,16.9 6,21.5 	"/>
	<polygon class="st2" points="6,21.5 5.8,16.9 6,17.7 	"/>
	<polygon class="st2" points="5.8,13.3 5.8,9 6,12.4 	"/>
	<polygon class="st2" points="6,12.4 5.8,9 6,8.7 	"/>
	<polygon class="st2" points="6,21.5 6,17.7 6.1,21.6 	"/>
	<polygon class="st2" points="6.1,21.6 6,17.7 6.1,18 	"/>
	<polygon class="st2" points="6,12.4 6,8.7 6.1,12.1 	"/>
	<polygon class="st2" points="6.1,12.1 6,8.7 6.1,8.5 	"/>
	<polygon class="st2" points="6.1,21.6 6.1,18 6.4,22.1 	"/>
	<polygon class="st2" points="6.4,22.1 6.1,18 6.4,19 	"/>
	<polygon class="st2" points="6.1,12.1 6.1,8.5 6.4,11.2 	"/>
	<polygon class="st2" points="6.4,11.2 6.1,8.5 6.4,8.1 	"/>
	<polygon class="st2" points="6.4,22.1 6.4,19 6.7,22.4 	"/>
	<polygon class="st2" points="6.7,22.4 6.4,19 6.7,19.5 	"/>
	<polygon class="st2" points="6.4,11.2 6.4,8.1 6.7,10.7 	"/>
	<polygon class="st2" points="6.7,10.7 6.4,8.1 6.7,7.8 	"/>
	<polygon class="st2" points="6.7,22.4 6.7,19.5 7,22.7 	"/>
	<polygon class="st2" points="7,22.7 6.7,19.5 7,20 	"/>
	<polygon class="st2" points="6.7,10.7 6.7,7.8 7,10.2 	"/>
	<polygon class="st2" points="7,10.2 6.7,7.8 7,7.4 	"/>
	<polygon class="st2" points="7,22.7 7,20 7.1,22.8 	"/>
	<polygon class="st2" points="7.1,22.8 7,20 7.1,20.2 	"/>
	<polygon class="st2" points="7,10.2 7,7.4 7.1,10 	"/>
	<polygon class="st2" points="7.1,10 7,7.4 7.1,7.3 	"/>
	<polygon class="st2" points="7.1,22.8 7.1,20.2 7.7,23.5 	"/>
	<polygon class="st2" points="7.7,23.5 7.1,20.2 7.7,21.1 	"/>
	<polygon class="st2" points="7.1,10 7.1,7.3 7.7,9.1 	"/>
	<polygon class="st2" points="7.7,9.1 7.1,7.3 7.7,6.7 	"/>
	<polygon class="st2" points="7.7,23.5 7.7,21.1 7.9,23.6 	"/>
	<polygon class="st2" points="7.9,23.6 7.7,21.1 7.9,21.3 	"/>
	<polygon class="st2" points="7.7,9.1 7.7,6.7 7.9,8.9 	"/>
	<polygon class="st2" points="7.9,8.9 7.7,6.7 7.9,6.6 	"/>
	<polygon class="st2" points="7.9,23.6 7.9,21.3 8,23.7 	"/>
	<polygon class="st2" points="8,23.7 7.9,21.3 8,21.4 	"/>
	<polygon class="st2" points="7.9,8.9 7.9,6.6 8,8.8 	"/>
	<polygon class="st2" points="8,8.8 7.9,6.6 8,6.5 	"/>
	<polygon class="st2" points="8,23.7 8,21.4 8.8,24.3 	"/>
	<polygon class="st2" points="8.8,24.3 8,21.4 8.8,22.2 	"/>
	<polygon class="st2" points="8,8.8 8,6.5 8.8,7.9 	"/>
	<polygon class="st2" points="8.8,7.9 8,6.5 8.8,5.9 	"/>
	<polygon class="st2" points="8.8,24.3 8.8,22.2 8.9,24.4 	"/>
	<polygon class="st2" points="8.9,24.4 8.8,22.2 8.9,22.3 	"/>
	<polygon class="st2" points="8.8,7.9 8.8,5.9 8.9,7.9 	"/>
	<polygon class="st2" points="8.9,7.9 8.8,5.9 8.9,5.8 	"/>
	<polygon class="st2" points="8.9,24.4 8.9,22.3 9.1,24.5 	"/>
	<polygon class="st2" points="9.1,24.5 8.9,22.3 9.1,22.4 	"/>
	<polygon class="st2" points="8.9,7.9 8.9,5.8 9.1,7.7 	"/>
	<polygon class="st2" points="9.1,7.7 8.9,5.8 9.1,5.7 	"/>
	<polygon class="st2" points="9.1,24.5 9.1,22.4 9.9,24.9 	"/>
	<polygon class="st2" points="9.9,24.9 9.1,22.4 9.9,23 	"/>
	<polygon class="st2" points="9.1,7.7 9.1,5.7 9.9,7.1 	"/>
	<polygon class="st2" points="9.9,7.1 9.1,5.7 9.9,5.2 	"/>
	<polygon class="st2" points="9.9,24.9 9.9,23 10,24.9 	"/>
	<polygon class="st2" points="10,24.9 9.9,23 10,23 	"/>
	<polygon class="st2" points="9.9,7.1 9.9,5.2 10,7.1 	"/>
	<polygon class="st2" points="10,7.1 9.9,5.2 10,5.2 	"/>
	<polygon class="st2" points="10,24.9 10,23 10,24.9 	"/>
	<polygon class="st2" points="10,24.9 10,23 10,23 	"/>
	<polygon class="st2" points="10,19 10,18.7 10,18.7 	"/>
	<polygon class="st2" points="10,7.1 10,5.2 10,7.1 	"/>
	<polygon class="st2" points="10,7.1 10,5.2 10,5.2 	"/>
	<polygon class="st2" points="10,24.9 10,23 10.1,25 	"/>
	<polygon class="st2" points="10.1,25 10,23 10.1,23.1 	"/>
	<polygon class="st2" points="10,19 10,18.7 10.1,19.1 	"/>
	<polygon class="st2" points="10.1,19.1 10,18.7 10.1,18.5 	"/>
	<polygon class="st2" points="10,7.1 10,5.2 10.1,7 	"/>
	<polygon class="st2" points="10.1,7 10,5.2 10.1,5.1 	"/>
	<polygon class="st2" points="10.1,25 10.1,23.1 10.1,25 	"/>
	<polygon class="st2" points="10.1,25 10.1,23.1 10.1,23.1 	"/>
	<polygon class="st2" points="10.1,19.1 10.1,18.5 10.1,19.2 	"/>
	<polygon class="st2" points="10.1,19.2 10.1,18.5 10.1,18.5 	"/>
	<polygon class="st2" points="10.1,7 10.1,5.1 10.1,7 	"/>
	<polygon class="st2" points="10.1,7 10.1,5.1 10.1,5.1 	"/>
	<polygon class="st2" points="10.1,25 10.1,23.1 10.2,25.1 	"/>
	<polygon class="st2" points="10.2,25.1 10.1,23.1 10.2,23.2 	"/>
	<polygon class="st2" points="10.1,19.2 10.1,18.5 10.2,19.2 	"/>
	<polygon class="st2" points="10.2,19.2 10.1,18.5 10.2,18.4 	"/>
	<polygon class="st2" points="10.1,7 10.1,5.1 10.2,7 	"/>
	<polygon class="st2" points="10.2,7 10.1,5.1 10.2,5.1 	"/>
	<polygon class="st2" points="10.2,25.1 10.2,23.2 10.4,25.2 	"/>
	<polygon class="st2" points="10.4,25.2 10.2,23.2 10.4,23.3 	"/>
	<polygon class="st2" points="10.2,19.2 10.2,18.4 10.4,19.2 	"/>
	<polygon class="st2" points="10.4,19.2 10.2,18.4 10.4,18.2 	"/>
	<polygon class="st2" points="10.2,7 10.2,5.1 10.4,6.9 	"/>
	<polygon class="st2" points="10.4,6.9 10.2,5.1 10.4,5 	"/>
	<polygon class="st2" points="10.4,25.2 10.4,23.3 10.4,25.2 	"/>
	<polygon class="st2" points="10.4,25.2 10.4,23.3 10.4,23.3 	"/>
	<polygon class="st2" points="10.4,19.2 10.4,18.2 10.4,19.2 	"/>
	<polygon class="st2" points="10.4,19.2 10.4,18.2 10.4,18.2 	"/>
	<polygon class="st2" points="10.4,6.9 10.4,5 10.4,6.9 	"/>
	<path class="st2" d="M10.4,6.9V5V6.9z"/>
	<polygon class="st2" points="10.4,25.2 10.4,23.3 10.6,25.3 	"/>
	<polygon class="st2" points="10.6,25.3 10.4,23.3 10.6,23.4 	"/>
	<polygon class="st2" points="10.4,19.2 10.4,18.2 10.6,19.2 	"/>
	<polygon class="st2" points="10.6,19.2 10.4,18.2 10.6,18 	"/>
	<polygon class="st2" points="10.4,6.9 10.4,5 10.6,6.8 	"/>
	<polygon class="st2" points="10.6,6.8 10.4,5 10.6,4.9 	"/>
	<polygon class="st2" points="10.6,25.3 10.6,23.4 11.1,25.5 	"/>
	<polygon class="st2" points="11.1,25.5 10.6,23.4 11.1,23.7 	"/>
	<polygon class="st2" points="10.6,19.2 10.6,18 11.1,18.9 	"/>
	<polygon class="st2" points="11.1,18.9 10.6,18 11.1,17.4 	"/>
	<polygon class="st2" points="10.6,6.8 10.6,4.9 11.1,6.5 	"/>
	<polygon class="st2" points="11.1,6.5 10.6,4.9 11.1,4.7 	"/>
	<polygon class="st2" points="11.1,25.5 11.1,23.7 11.6,25.7 	"/>
	<polygon class="st2" points="11.6,25.7 11.1,23.7 11.6,23.9 	"/>
	<polygon class="st2" points="11.1,18.9 11.1,17.4 11.6,18.6 	"/>
	<polygon class="st2" points="11.6,18.6 11.1,17.4 11.6,16.8 	"/>
	<polygon class="st2" points="11.1,6.5 11.1,4.7 11.6,6.3 	"/>
	<polygon class="st2" points="11.6,6.3 11.1,4.7 11.6,4.5 	"/>
	<polygon class="st2" points="11.6,25.7 11.6,23.9 11.7,25.7 	"/>
	<polygon class="st2" points="11.7,25.7 11.6,23.9 11.7,23.9 	"/>
	<polygon class="st2" points="11.6,18.6 11.6,16.8 11.7,18.5 	"/>
	<polygon class="st2" points="11.7,18.5 11.6,16.8 11.7,16.8 	"/>
	<polygon class="st2" points="11.6,6.3 11.6,4.5 11.7,6.3 	"/>
	<polygon class="st2" points="11.7,6.3 11.6,4.5 11.7,4.5 	"/>
	<polygon class="st2" points="11.7,25.7 11.7,23.9 12.4,25.8 	"/>
	<polygon class="st2" points="12.4,25.8 11.7,23.9 12.4,24.1 	"/>
	<polygon class="st2" points="11.7,18.5 11.7,16.8 12.4,18.2 	"/>
	<polygon class="st2" points="12.4,18.2 11.7,16.8 12.4,16 	"/>
	<polygon class="st2" points="11.7,6.3 11.7,4.5 12.4,6 	"/>
	<polygon class="st2" points="12.4,6 11.7,4.5 12.4,4.3 	"/>
	<polygon class="st2" points="12.4,25.8 12.4,24.1 13,26 	"/>
	<polygon class="st2" points="13,26 12.4,24.1 13,24.3 	"/>
	<polygon class="st2" points="12.4,18.2 12.4,16 13,17.8 	"/>
	<polygon class="st2" points="13,17.8 12.4,16 13,15.2 	"/>
	<polygon class="st2" points="12.4,6 12.4,4.3 13,5.9 	"/>
	<polygon class="st2" points="13,5.9 12.4,4.3 13,4.1 	"/>
	<polygon class="st2" points="13,26 13,24.3 13.1,26 	"/>
	<polygon class="st2" points="13.1,26 13,24.3 13.1,24.3 	"/>
	<polygon class="st2" points="13,17.8 13,15.2 13.1,17.8 	"/>
	<polygon class="st2" points="13.1,17.8 13,15.2 13.1,15.2 	"/>
	<polygon class="st2" points="13,5.9 13,4.1 13.1,5.9 	"/>
	<polygon class="st2" points="13.1,5.9 13,4.1 13.1,4.1 	"/>
	<polygon class="st2" points="13.1,26 13.1,24.3 13.7,26.1 	"/>
	<polygon class="st2" points="13.7,26.1 13.1,24.3 13.7,24.4 	"/>
	<polygon class="st2" points="13.1,17.8 13.1,15.2 13.7,17.4 	"/>
	<polygon class="st2" points="13.7,17.4 13.1,15.2 13.7,14.5 	"/>
	<polygon class="st2" points="13.1,5.9 13.1,4.1 13.7,5.7 	"/>
	<polygon class="st2" points="13.7,5.7 13.1,4.1 13.7,4.1 	"/>
	<polygon class="st2" points="13.7,26.1 13.7,24.4 13.7,26.1 	"/>
	<polygon class="st2" points="13.7,26.1 13.7,24.4 13.7,24.4 	"/>
	<polygon class="st2" points="13.7,17.4 13.7,14.5 13.7,17.4 	"/>
	<polygon class="st2" points="13.7,17.4 13.7,14.5 13.7,14.5 	"/>
	<polygon class="st2" points="13.7,5.7 13.7,4.1 13.7,5.7 	"/>
	<polygon class="st2" points="13.7,5.7 13.7,4.1 13.7,4.1 	"/>
	<polygon class="st2" points="13.7,26.1 13.7,24.4 14.4,26.2 	"/>
	<polygon class="st2" points="14.4,26.2 13.7,24.4 14.4,24.5 	"/>
	<polygon class="st2" points="13.7,17.4 13.7,14.5 14.4,17 	"/>
	<polygon class="st2" points="14.4,17 13.7,14.5 14.4,8.1 	"/>
	<polygon class="st2" points="13.7,5.7 13.7,4.1 14.4,5.7 	"/>
	<polygon class="st2" points="14.4,5.7 13.7,4.1 14.4,4 	"/>
	<polygon class="st2" points="14.4,26.2 14.4,24.5 14.6,26.2 	"/>
	<polygon class="st2" points="14.6,26.2 14.4,24.5 14.6,24.5 	"/>
	<polygon class="st2" points="14.4,17 14.4,8.1 14.6,16.9 	"/>
	<polygon class="st2" points="14.6,16.9 14.4,8.1 14.6,7.1 	"/>
	<polygon class="st2" points="14.4,5.7 14.4,4 14.6,5.7 	"/>
	<polygon class="st2" points="14.6,5.7 14.4,4 14.6,4 	"/>
	<polygon class="st2" points="14.6,26.2 14.6,24.5 14.6,26.2 	"/>
	<polygon class="st2" points="14.6,26.2 14.6,24.5 14.6,24.5 	"/>
	<polygon class="st2" points="14.6,16.9 14.6,7.1 14.6,16.9 	"/>
	<polygon class="st2" points="14.6,16.9 14.6,7.1 14.6,6.7 	"/>
	<polygon class="st2" points="14.6,5.7 14.6,4 14.6,5.7 	"/>
	<polygon class="st2" points="14.6,5.7 14.6,4 14.6,4 	"/>
	<polygon class="st2" points="14.6,26.2 14.6,24.5 14.7,26.2 	"/>
	<polygon class="st2" points="14.7,26.2 14.6,24.5 14.7,24.5 	"/>
	<polygon class="st2" points="14.6,16.9 14.6,6.7 14.7,16.9 	"/>
	<polygon class="st2" points="14.7,16.9 14.6,6.7 14.7,6.5 	"/>
	<polygon class="st2" points="14.6,5.7 14.6,4 14.7,5.7 	"/>
	<polygon class="st2" points="14.7,5.7 14.6,4 14.7,4 	"/>
	<polygon class="st2" points="14.7,26.2 14.7,24.5 14.9,26.2 	"/>
	<polygon class="st2" points="14.9,26.2 14.7,24.5 14.9,24.5 	"/>
	<polygon class="st2" points="14.7,16.9 14.7,6.5 14.9,16.7 	"/>
	<polygon class="st2" points="14.9,16.7 14.7,6.5 14.9,6.3 	"/>
	<polygon class="st2" points="14.7,5.7 14.7,4 14.9,5.6 	"/>
	<polygon class="st2" points="14.9,5.6 14.7,4 14.9,4 	"/>
	<polygon class="st2" points="14.9,26.2 14.9,24.5 15,26.2 	"/>
	<polygon class="st2" points="15,26.2 14.9,24.5 15,24.5 	"/>
	<polygon class="st2" points="14.9,16.7 14.9,6.3 15,16.7 	"/>
	<polygon class="st2" points="15,16.7 14.9,6.3 15,6.3 	"/>
	<polygon class="st2" points="14.9,5.6 14.9,4 15,5.6 	"/>
	<polygon class="st2" points="15,5.6 14.9,4 15,4 	"/>
	<polygon class="st2" points="15,26.2 15,24.5 15.2,26.2 	"/>
	<polygon class="st2" points="15.2,26.2 15,24.5 15.2,24.5 	"/>
	<polygon class="st2" points="15,16.7 15,6.3 15.2,16.6 	"/>
	<polygon class="st2" points="15.2,16.6 15,6.3 15.2,6.3 	"/>
	<polygon class="st2" points="15,5.6 15,4 15.2,5.6 	"/>
	<polygon class="st2" points="15.2,5.6 15,4 15.2,4 	"/>
	<polygon class="st2" points="15.2,26.2 15.2,24.5 15.4,26.2 	"/>
	<polygon class="st2" points="15.4,26.2 15.2,24.5 15.4,24.5 	"/>
	<polygon class="st2" points="15.2,16.6 15.2,6.3 15.4,16.5 	"/>
	<polygon class="st2" points="15.4,16.5 15.2,6.3 15.4,6.5 	"/>
	<polygon class="st2" points="15.2,5.6 15.2,4 15.4,5.7 	"/>
	<polygon class="st2" points="15.4,5.7 15.2,4 15.4,4 	"/>
	<polygon class="st2" points="15.4,26.2 15.4,24.5 15.5,26.2 	"/>
	<polygon class="st2" points="15.5,26.2 15.4,24.5 15.5,24.5 	"/>
	<polygon class="st2" points="15.4,16.5 15.4,6.5 15.5,16.4 	"/>
	<polygon class="st2" points="15.5,16.4 15.4,6.5 15.5,6.7 	"/>
	<polygon class="st2" points="15.4,5.7 15.4,4 15.5,5.7 	"/>
	<polygon class="st2" points="15.5,5.7 15.4,4 15.5,4 	"/>
	<polygon class="st2" points="15.5,26.2 15.5,24.5 15.7,26.1 	"/>
	<polygon class="st2" points="15.7,26.1 15.5,24.5 15.7,24.5 	"/>
	<polygon class="st2" points="15.5,16.4 15.5,6.7 15.7,16.3 	"/>
	<polygon class="st2" points="15.7,16.3 15.5,6.7 15.7,8.6 	"/>
	<polygon class="st2" points="15.5,5.7 15.5,4 15.7,5.7 	"/>
	<polygon class="st2" points="15.7,5.7 15.5,4 15.7,4 	"/>
	<polygon class="st2" points="15.7,26.1 15.7,24.5 15.8,26.1 	"/>
	<polygon class="st2" points="15.8,26.1 15.7,24.5 15.8,24.5 	"/>
	<polygon class="st2" points="15.7,16.3 15.7,8.6 15.8,16.2 	"/>
	<polygon class="st2" points="15.8,16.2 15.7,8.6 15.8,10.1 	"/>
	<polygon class="st2" points="15.7,5.7 15.7,4 15.8,5.7 	"/>
	<polygon class="st2" points="15.8,5.7 15.7,4 15.8,4 	"/>
	<polygon class="st2" points="15.8,26.1 15.8,24.5 16,26.1 	"/>
	<polygon class="st2" points="16,26.1 15.8,24.5 16,24.5 	"/>
	<polygon class="st2" points="15.8,16.2 15.8,10.1 16,16 	"/>
	<polygon class="st2" points="16,16 15.8,10.1 16,11.8 	"/>
	<polygon class="st2" points="15.8,5.7 15.8,4 16,5.7 	"/>
	<polygon class="st2" points="16,5.7 15.8,4 16,4 	"/>
	<polygon class="st2" points="16,26.1 16,24.5 16.1,26.1 	"/>
	<polygon class="st2" points="16.1,26.1 16,24.5 16.1,24.4 	"/>
	<polygon class="st2" points="16,16 16,11.8 16.1,16 	"/>
	<polygon class="st2" points="16.1,16 16,11.8 16.1,12 	"/>
	<polygon class="st2" points="16,5.7 16,4 16.1,5.7 	"/>
	<polygon class="st2" points="16.1,5.7 16,4 16.1,4 	"/>
	<polygon class="st2" points="16.1,26.1 16.1,24.4 16.3,26.1 	"/>
	<polygon class="st2" points="16.3,26.1 16.1,24.4 16.3,24.4 	"/>
	<polygon class="st2" points="16.1,16 16.1,12 16.3,15.6 	"/>
	<polygon class="st2" points="16.3,15.6 16.1,12 16.3,14.2 	"/>
	<polygon class="st2" points="16.1,5.7 16.1,4 16.3,5.7 	"/>
	<polygon class="st2" points="16.3,5.7 16.1,4 16.3,4.1 	"/>
	<polygon class="st2" points="16.3,26.1 16.3,24.4 16.4,26.1 	"/>
	<polygon class="st2" points="16.4,26.1 16.3,24.4 16.4,24.4 	"/>
	<polygon class="st2" points="16.3,15.6 16.3,14.2 16.4,15.3 	"/>
	<polygon class="st2" points="16.4,15.3 16.3,14.2 16.4,14.7 	"/>
	<polygon class="st2" points="16.3,5.7 16.3,4.1 16.4,5.7 	"/>
	<polygon class="st2" points="16.4,5.7 16.3,4.1 16.4,4.1 	"/>
	<polygon class="st2" points="16.4,26.1 16.4,24.4 16.4,26.1 	"/>
	<polygon class="st2" points="16.4,26.1 16.4,24.4 16.4,24.4 	"/>
	<polygon class="st2" points="16.4,15.3 16.4,14.7 16.4,15.2 	"/>
	<polygon class="st2" points="16.4,15.2 16.4,14.7 16.4,14.9 	"/>
	<polygon class="st2" points="16.4,5.7 16.4,4.1 16.4,5.7 	"/>
	<polygon class="st2" points="16.4,5.7 16.4,4.1 16.4,4.1 	"/>
	<polygon class="st2" points="16.4,26.1 16.4,24.4 16.4,26.1 	"/>
	<polygon class="st2" points="16.4,26.1 16.4,24.4 16.4,24.4 	"/>
	<polygon class="st2" points="16.4,15.2 16.4,14.9 16.4,15.1 	"/>
	<polygon class="st2" points="16.4,5.7 16.4,4.1 16.4,5.7 	"/>
	<polygon class="st2" points="16.4,5.7 16.4,4.1 16.4,4.1 	"/>
	<polygon class="st2" points="16.4,26.1 16.4,24.4 17.2,26 	"/>
	<polygon class="st2" points="17.2,26 16.4,24.4 17.2,24.2 	"/>
	<polygon class="st2" points="16.4,5.7 16.4,4.1 17.2,5.9 	"/>
	<polygon class="st2" points="17.2,5.9 16.4,4.1 17.2,4.2 	"/>
	<polygon class="st2" points="17.2,26 17.2,24.2 17.5,25.9 	"/>
	<polygon class="st2" points="17.5,25.9 17.2,24.2 17.5,24.2 	"/>
	<polygon class="st2" points="17.2,5.9 17.2,4.2 17.5,6 	"/>
	<polygon class="st2" points="17.5,6 17.2,4.2 17.5,4.3 	"/>
	<polygon class="st2" points="17.5,25.9 17.5,24.2 17.7,25.9 	"/>
	<polygon class="st2" points="17.7,25.9 17.5,24.2 17.7,24.1 	"/>
	<polygon class="st2" points="17.5,6 17.5,4.3 17.7,6 	"/>
	<polygon class="st2" points="17.7,6 17.5,4.3 17.7,4.3 	"/>
	<polygon class="st2" points="17.7,25.9 17.7,24.1 18.6,25.6 	"/>
	<polygon class="st2" points="18.6,25.6 17.7,24.1 18.6,23.8 	"/>
	<polygon class="st2" points="17.7,6 17.7,4.3 18.6,6.3 	"/>
	<polygon class="st2" points="18.6,6.3 17.7,4.3 18.6,4.5 	"/>
	<polygon class="st2" points="18.6,25.6 18.6,23.8 19,25.5 	"/>
	<polygon class="st2" points="19,25.5 18.6,23.8 19,23.7 	"/>
	<polygon class="st2" points="18.6,6.3 18.6,4.5 19,6.5 	"/>
	<polygon class="st2" points="19,6.5 18.6,4.5 19,4.7 	"/>
	<polygon class="st2" points="19,25.5 19,23.7 19,25.5 	"/>
	<polygon class="st2" points="19,25.5 19,23.7 19,23.7 	"/>
	<polygon class="st2" points="19,6.5 19,4.7 19,6.5 	"/>
	<polygon class="st2" points="19,6.5 19,4.7 19,4.7 	"/>
	<polygon class="st2" points="19,25.5 19,23.7 19.8,25.1 	"/>
	<polygon class="st2" points="19.8,25.1 19,23.7 19.8,23.2 	"/>
	<polygon class="st2" points="19,6.5 19,4.7 19.8,7 	"/>
	<polygon class="st2" points="19.8,7 19,4.7 19.8,5.1 	"/>
	<polygon class="st2" points="19.8,25.1 19.8,23.2 20.1,24.9 	"/>
	<polygon class="st2" points="20.1,24.9 19.8,23.2 20.1,23 	"/>
	<polygon class="st2" points="19.8,7 19.8,5.1 20.1,7.1 	"/>
	<polygon class="st2" points="20.1,7.1 19.8,5.1 20.1,5.2 	"/>
	<polygon class="st2" points="20.1,24.9 20.1,23 20.3,24.9 	"/>
	<polygon class="st2" points="20.3,24.9 20.1,23 20.3,22.9 	"/>
	<polygon class="st2" points="20.1,7.1 20.1,5.2 20.3,7.3 	"/>
	<polygon class="st2" points="20.3,7.3 20.1,5.2 20.3,5.3 	"/>
	<polygon class="st2" points="20.3,24.9 20.3,22.9 21,24.4 	"/>
	<polygon class="st2" points="21,24.4 20.3,22.9 21,22.3 	"/>
	<polygon class="st2" points="20.3,7.3 20.3,5.3 21,7.8 	"/>
	<polygon class="st2" points="21,7.8 20.3,5.3 21,5.7 	"/>
	<polygon class="st2" points="21,24.4 21,22.3 21.2,24.3 	"/>
	<polygon class="st2" points="21.2,24.3 21,22.3 21.2,22.2 	"/>
	<polygon class="st2" points="21,7.8 21,5.7 21.2,7.9 	"/>
	<polygon class="st2" points="21.2,7.9 21,5.7 21.2,5.9 	"/>
	<polygon class="st2" points="21.2,24.3 21.2,22.2 21.6,24.1 	"/>
	<polygon class="st2" points="21.6,24.1 21.2,22.2 21.6,21.9 	"/>
	<polygon class="st2" points="21.2,7.9 21.2,5.9 21.6,8.3 	"/>
	<polygon class="st2" points="21.6,8.3 21.2,5.9 21.6,6.1 	"/>
	<polygon class="st2" points="21.6,24.1 21.6,21.9 22.2,23.6 	"/>
	<polygon class="st2" points="22.2,23.6 21.6,21.9 22.2,21.3 	"/>
	<polygon class="st2" points="21.6,8.3 21.6,6.1 22.2,8.9 	"/>
	<polygon class="st2" points="22.2,8.9 21.6,6.1 22.2,6.6 	"/>
	<polygon class="st2" points="22.2,23.6 22.2,21.3 22.2,23.6 	"/>
	<polygon class="st2" points="22.2,23.6 22.2,21.3 22.2,21.3 	"/>
	<polygon class="st2" points="22.2,8.9 22.2,6.6 22.2,8.9 	"/>
	<polygon class="st2" points="22.2,8.9 22.2,6.6 22.2,6.6 	"/>
	<polygon class="st2" points="22.2,23.6 22.2,21.3 22.7,23.1 	"/>
	<polygon class="st2" points="22.7,23.1 22.2,21.3 22.7,20.5 	"/>
	<polygon class="st2" points="22.2,8.9 22.2,6.6 22.7,9.6 	"/>
	<polygon class="st2" points="22.7,9.6 22.2,6.6 22.7,7.1 	"/>
	<polygon class="st2" points="22.7,23.1 22.7,20.5 23,22.8 	"/>
	<polygon class="st2" points="23,22.8 22.7,20.5 23,20.2 	"/>
	<polygon class="st2" points="22.7,9.6 22.7,7.1 23,10 	"/>
	<polygon class="st2" points="23,10 22.7,7.1 23,7.3 	"/>
	<polygon class="st2" points="23,22.8 23,20.2 23.2,22.6 	"/>
	<polygon class="st2" points="23.2,22.6 23,20.2 23.2,19.8 	"/>
	<polygon class="st2" points="23,10 23,7.3 23.2,10.3 	"/>
	<polygon class="st2" points="23.2,10.3 23,7.3 23.2,7.5 	"/>
	<polygon class="st2" points="23.2,22.6 23.2,19.8 23.6,22.1 	"/>
	<polygon class="st2" points="23.6,22.1 23.2,19.8 23.6,19 	"/>
	<polygon class="st2" points="23.2,10.3 23.2,7.5 23.6,11.2 	"/>
	<polygon class="st2" points="23.6,11.2 23.2,7.5 23.6,8.1 	"/>
	<polygon class="st2" points="23.6,22.1 23.6,19 23.7,22 	"/>
	<polygon class="st2" points="23.7,22 23.6,19 23.7,18.7 	"/>
	<polygon class="st2" points="23.6,11.2 23.6,8.1 23.7,11.4 	"/>
	<polygon class="st2" points="23.7,11.4 23.6,8.1 23.7,8.2 	"/>
	<polygon class="st2" points="23.7,22 23.7,18.7 24.1,21.5 	"/>
	<polygon class="st2" points="24.1,21.5 23.7,18.7 24.1,17.9 	"/>
	<polygon class="st2" points="23.7,11.4 23.7,8.2 24.1,12.3 	"/>
	<polygon class="st2" points="24.1,12.3 23.7,8.2 24.1,8.6 	"/>
	<polygon class="st2" points="24.1,21.5 24.1,17.9 24.1,21.5 	"/>
	<polygon class="st2" points="24.1,21.5 24.1,17.9 24.1,17.7 	"/>
	<polygon class="st2" points="24.1,12.3 24.1,8.6 24.1,12.4 	"/>
	<polygon class="st2" points="24.1,12.4 24.1,8.6 24.1,8.7 	"/>
	<polygon class="st2" points="24.1,21.5 24.1,17.7 24.4,21 	"/>
	<polygon class="st2" points="24.4,21 24.1,17.7 24.4,16.4 	"/>
	<polygon class="st2" points="24.1,12.4 24.1,8.7 24.4,13.7 	"/>
	<polygon class="st2" points="24.4,13.7 24.1,8.7 24.4,9.1 	"/>
	<polygon class="st2" points="24.4,21 24.4,16.4 24.5,20.9 	"/>
	<polygon class="st2" points="24.5,20.9 24.4,16.4 24.5,15.1 	"/>
	<polygon class="st2" points="24.4,13.7 24.4,9.1 24.5,15.1 	"/>
	<polygon class="st2" points="24.5,15.1 24.4,9.1 24.5,9.3 	"/>
	<polygon class="st2" points="24.5,20.9 24.5,9.3 24.6,20.8 	"/>
	<polygon class="st2" points="24.6,20.8 24.5,9.3 24.6,9.4 	"/>
	<polygon class="st2" points="24.6,20.8 24.6,9.4 24.8,20.4 	"/>
	<polygon class="st2" points="24.8,20.4 24.6,9.4 24.8,9.8 	"/>
	<polygon class="st2" points="24.8,20.4 24.8,9.8 25.3,19.4 	"/>
	<polygon class="st2" points="25.3,19.4 24.8,9.8 25.3,10.8 	"/>
	<polygon class="st2" points="25.3,19.4 25.3,10.8 25.4,19.1 	"/>
	<polygon class="st2" points="25.4,19.1 25.3,10.8 25.4,11 	"/>
	<polygon class="st2" points="25.4,19.1 25.4,11 25.8,18 	"/>
	<polygon class="st2" points="25.8,18 25.4,11 25.8,12.2 	"/>
	<polygon class="st2" points="25.8,18 25.8,12.2 25.8,17.8 	"/>
	<polygon class="st2" points="25.8,17.8 25.8,12.2 25.8,12.3 	"/>
	<polygon class="st2" points="25.8,17.8 25.8,12.3 26,16.6 	"/>
	<polygon class="st2" points="26,16.6 25.8,12.3 26,13.6 	"/>
	<polygon class="st2" points="26,16.6 26,13.6 26.1,16.4 	"/>
	<polygon class="st2" points="26.1,16.4 26,13.6 26.1,13.7 	"/>
	<polygon class="st2" points="26.1,16.4 26.1,13.7 26.1,15.1 	"/>
	<polygon class="st2" points="6.6,56 3.1,52.5 6.6,49.2 	"/>
	<polygon class="st2" points="6.6,56 6.6,49.2 16.1,46.7 	"/>
	<polygon class="st2" points="16.1,46.7 6.6,49.2 16.1,39.9 	"/>
	<polygon class="st2" points="16.1,46.7 16.1,39.9 16.2,46.6 	"/>
	<polygon class="st2" points="16.2,46.6 16.1,39.9 16.2,39.8 	"/>
	<polygon class="st2" points="16.2,38.1 16.1,37.4 16.2,36.4 	"/>
	<polygon class="st2" points="16.2,46.6 16.2,39.8 16.2,46.6 	"/>
	<polygon class="st2" points="16.2,46.6 16.2,39.8 16.2,39.8 	"/>
	<polygon class="st2" points="16.2,38.1 16.2,36.4 16.2,38.5 	"/>
	<polygon class="st2" points="16.2,38.5 16.2,36.4 16.2,36.2 	"/>
	<polygon class="st2" points="16.2,46.6 16.2,39.8 16.4,46.4 	"/>
	<polygon class="st2" points="16.4,46.4 16.2,39.8 16.4,39.6 	"/>
	<polygon class="st2" points="16.2,38.5 16.2,36.2 16.4,39.2 	"/>
	<polygon class="st2" points="16.4,39.2 16.2,36.2 16.4,35.3 	"/>
	<polygon class="st2" points="16.4,46.4 16.4,39.6 16.5,46.3 	"/>
	<polygon class="st2" points="16.5,46.3 16.4,39.6 16.5,39.5 	"/>
	<polygon class="st2" points="16.4,39.2 16.4,35.3 16.5,39.5 	"/>
	<polygon class="st2" points="16.5,39.5 16.4,35.3 16.5,35.2 	"/>
	<polygon class="st2" points="16.5,46.3 16.5,35.2 16.9,46 	"/>
	<polygon class="st2" points="16.9,46 16.5,35.2 16.9,34.4 	"/>
	<polygon class="st2" points="16.9,46 16.9,34.4 17.5,45.4 	"/>
	<polygon class="st2" points="17.5,45.4 16.9,34.4 17.5,33.5 	"/>
	<polygon class="st2" points="17.5,45.4 17.5,33.5 18.2,44.7 	"/>
	<polygon class="st2" points="18.2,44.7 17.5,33.5 18.2,32.8 	"/>
	<polygon class="st2" points="18.2,44.7 18.2,32.8 19.1,43.8 	"/>
	<polygon class="st2" points="19.1,43.8 18.2,32.8 19.1,32.1 	"/>
	<polygon class="st2" points="19.1,43.8 19.1,32.1 19.9,43 	"/>
	<polygon class="st2" points="19.9,43 19.1,32.1 19.9,31.7 	"/>
	<polygon class="st2" points="19.9,43 19.9,35.1 20,42.9 	"/>
	<polygon class="st2" points="20,42.9 19.9,35.1 20,35.2 	"/>
	<polygon class="st2" points="19.9,35.1 19.9,31.7 20,35.1 	"/>
	<polygon class="st2" points="20,35.1 19.9,31.7 20,31.7 	"/>
	<polygon class="st2" points="20,42.9 20,35.2 20,42.9 	"/>
	<polygon class="st2" points="20,42.9 20,35.2 20,35.3 	"/>
	<polygon class="st2" points="20,35.1 20,31.7 20,35.1 	"/>
	<polygon class="st2" points="20,35.1 20,31.7 20,31.7 	"/>
	<polygon class="st2" points="20,42.9 20,35.3 21,43.2 	"/>
	<polygon class="st2" points="21,43.2 20,35.3 21,36.9 	"/>
	<polygon class="st2" points="20,35.1 20,31.7 21,34.5 	"/>
	<polygon class="st2" points="21,34.5 20,31.7 21,31.4 	"/>
	<polygon class="st2" points="21,43.2 21,36.9 21,43.2 	"/>
	<polygon class="st2" points="21,43.2 21,36.9 21,37 	"/>
	<polygon class="st2" points="21,34.5 21,31.4 21,34.5 	"/>
	<polygon class="st2" points="21,34.5 21,31.4 21,31.4 	"/>
	<polygon class="st2" points="21,43.2 21,37 22,43.3 	"/>
	<polygon class="st2" points="22,43.3 21,37 22,38.8 	"/>
	<polygon class="st2" points="21,34.5 21,31.4 22,33.9 	"/>
	<polygon class="st2" points="22,33.9 21,31.4 22,31.3 	"/>
	<polygon class="st2" points="22,43.3 22,38.8 22.1,43.3 	"/>
	<polygon class="st2" points="22.1,43.3 22,38.8 22.1,38.9 	"/>
	<polygon class="st2" points="22,33.9 22,31.3 22.1,33.9 	"/>
	<polygon class="st2" points="22.1,33.9 22,31.3 22.1,31.3 	"/>
	<polygon class="st2" points="22.1,43.3 22.1,38.9 22.9,43.3 	"/>
	<polygon class="st2" points="22.9,43.3 22.1,38.9 22.9,40.3 	"/>
	<polygon class="st2" points="22.1,33.9 22.1,31.3 22.9,33.4 	"/>
	<polygon class="st2" points="22.9,33.4 22.1,31.3 22.9,31.4 	"/>
	<polygon class="st2" points="22.9,43.3 22.9,40.3 23.1,43.2 	"/>
	<polygon class="st2" points="23.1,43.2 22.9,40.3 23.1,40.2 	"/>
	<polygon class="st2" points="22.9,33.4 22.9,31.4 23.1,33.3 	"/>
	<polygon class="st2" points="23.1,33.3 22.9,31.4 23.1,31.4 	"/>
	<polygon class="st2" points="23.1,43.2 23.1,40.2 23.2,43.2 	"/>
	<polygon class="st2" points="23.2,43.2 23.1,40.2 23.2,40.2 	"/>
	<polygon class="st2" points="23.1,33.3 23.1,31.4 23.2,33.3 	"/>
	<polygon class="st2" points="23.2,33.3 23.1,31.4 23.2,31.4 	"/>
	<polygon class="st2" points="23.2,43.2 23.2,40.2 24.1,43 	"/>
	<polygon class="st2" points="24.1,43 23.2,40.2 24.1,39.6 	"/>
	<polygon class="st2" points="23.2,33.3 23.2,31.4 24.1,32.7 	"/>
	<polygon class="st2" points="24.1,32.7 23.2,31.4 24.1,31.7 	"/>
	<polygon class="st2" points="24.1,43 24.1,39.6 24.2,42.9 	"/>
	<polygon class="st2" points="24.2,42.9 24.1,39.6 24.2,39.6 	"/>
	<polygon class="st2" points="24.1,32.7 24.1,31.7 24.2,32.7 	"/>
	<polygon class="st2" points="24.2,32.7 24.1,31.7 24.2,31.7 	"/>
	<polygon class="st2" points="24.2,42.9 24.2,39.6 25.1,42.5 	"/>
	<polygon class="st2" points="25.1,42.5 24.2,39.6 25.1,39.1 	"/>
	<polygon class="st2" points="24.2,32.7 24.2,31.7 25.1,32.2 	"/>
	<polygon class="st2" points="25.1,32.2 24.2,31.7 25.1,32.1 	"/>
	<polygon class="st2" points="25.1,42.5 25.1,39.1 25.1,42.5 	"/>
	<polygon class="st2" points="25.1,42.5 25.1,39.1 25.1,39 	"/>
	<polygon class="st2" points="25.1,32.2 25.1,32.1 25.1,32.1 	"/>
	<polygon class="st2" points="25.1,42.5 25.1,39 25.9,41.9 	"/>
	<polygon class="st2" points="25.9,41.9 25.1,39 25.9,38.6 	"/>
	<polygon class="st2" points="25.9,41.9 25.9,38.6 26.7,41.2 	"/>
	<polygon class="st2" points="26.7,41.2 25.9,38.6 26.7,38.1 	"/>
	<polygon class="st2" points="26.7,41.2 26.7,38.1 27.3,40.3 	"/>
	<polygon class="st2" points="27.3,40.3 26.7,38.1 27.3,37.8 	"/>
	<polygon class="st2" points="27.3,40.3 27.3,37.8 27.7,39.4 	"/>
	<polygon class="st2" points="27.7,39.4 27.3,37.8 27.7,37.5 	"/>
	<polygon class="st2" points="27.7,39.4 27.7,37.5 28,38.4 	"/>
	<polygon class="st2" points="28,38.4 27.7,37.5 28,37.4 	"/>
	<polygon class="st2" points="28,38.4 28,37.4 28.1,37.3 	"/>
	<polygon class="st2" points="4.2,36.9 2.3,34.1 4.2,32.2 	"/>
	<polygon class="st2" points="4.2,36.9 4.2,32.2 4.8,37.7 	"/>
	<polygon class="st2" points="4.8,37.7 4.2,32.2 4.8,32.6 	"/>
	<polygon class="st2" points="4.8,37.7 4.8,32.6 6.7,38.1 	"/>
	<polygon class="st2" points="6.7,38.1 4.8,32.6 6.7,34 	"/>
	<polygon class="st2" points="6.7,38.1 6.7,34 7.8,39.2 	"/>
	<polygon class="st2" points="7.8,39.2 6.7,34 7.8,34.8 	"/>
	<polygon class="st2" points="7.8,39.2 7.8,34.8 8.1,39.7 	"/>
	<polygon class="st2" points="8.1,39.7 7.8,34.8 8.1,36.7 	"/>
	<polygon class="st2" points="8.1,39.7 8.1,36.7 10.5,42.3 	"/>
	<polygon class="st2" points="10.5,42.3 8.1,36.7 10.5,39 	"/>
	<polygon class="st2" points="10.5,42.3 10.5,39 12.3,40.6 	"/>
	<polygon class="st2" points="19.4,53.3 16.4,49.6 19.4,46.7 	"/>
	<polygon class="st2" points="19.4,53.3 19.4,46.7 22.3,56.8 	"/>
	<polygon class="st2" points="22.3,56.8 19.4,46.7 22.3,49.2 	"/>
	<polygon class="st2" points="22.3,56.8 22.3,49.2 26.5,52.8 	"/>
	<polyline class="st1" points="28.1,37.3 22.9,40.3 19.9,35.1 25.1,32.1 	"/>
	<polyline class="st1" points="25.1,32.1 24.2,31.7 23.2,31.4 22.1,31.3 21,31.4 20,31.7 19.1,32.1 18.2,32.8 17.5,33.5 16.9,34.4 
		16.4,35.3 16.2,36.4 16.1,37.4 16.2,38.5 16.5,39.5 	"/>
	<line class="st1" x1="3.1" y1="52.5" x2="16.5" y2="39.5"/>
	<line class="st1" x1="6.6" y1="56" x2="20" y2="42.9"/>
	<line class="st1" x1="6.6" y1="56" x2="3.1" y2="52.5"/>
	<polyline class="st1" points="20,42.9 21,43.2 22,43.3 23.1,43.2 24.1,43 25.1,42.5 25.9,41.9 26.7,41.2 27.3,40.3 27.7,39.4 
		28,38.4 28.1,37.3 	"/>
	<line class="st1" x1="26.5" y1="52.8" x2="22.3" y2="56.8"/>
	<line class="st1" x1="19.4" y1="46.7" x2="16.4" y2="49.6"/>
	<line class="st1" x1="19.4" y1="46.7" x2="26.5" y2="52.8"/>
	<line class="st1" x1="12.3" y1="40.6" x2="10.5" y2="42.3"/>
	<line class="st1" x1="4.2" y1="32.2" x2="2.3" y2="34.1"/>
	<line class="st1" x1="4.2" y1="32.2" x2="7.8" y2="34.8"/>
	<line class="st1" x1="7.8" y1="34.8" x2="8.1" y2="36.7"/>
	<line class="st1" x1="8.1" y1="36.7" x2="12.3" y2="40.6"/>
	<line class="st1" x1="6.7" y1="38.1" x2="10.5" y2="42.3"/>
	<line class="st1" x1="16.4" y1="49.6" x2="22.3" y2="56.8"/>
	<line class="st1" x1="2.3" y1="34.1" x2="4.8" y2="37.7"/>
	<line class="st1" x1="4.8" y1="37.7" x2="6.7" y2="38.1"/>
	<polygon class="st2" points="54.5,63.3 54.2,61.2 56.3,61 56.6,62.9 	"/>
	<polygon class="st2" points="54.2,61.2 54.1,59 56.3,59 56.3,61 	"/>
	<polygon class="st2" points="54.1,59 54.2,56.8 56.3,57 56.3,59 	"/>
	<polygon class="st2" points="54.2,56.8 54.5,54.7 56.6,55.1 56.3,57 	"/>
	<polygon class="st2" points="54.5,54.7 54.9,52.6 57,53.1 56.6,55.1 	"/>
	<polygon class="st2" points="54.9,52.6 55.6,50.5 57.6,51.3 57,53.1 	"/>
	<polygon class="st2" points="55.6,50.5 56.4,48.5 58.4,49.4 57.6,51.3 	"/>
	<polygon class="st2" points="56.4,48.5 57.4,46.6 59.3,47.7 58.4,49.4 	"/>
	<polygon class="st2" points="57.4,46.6 58.6,44.8 60.3,46 59.3,47.7 	"/>
	<polygon class="st2" points="58.6,44.8 59.9,43.1 61.5,44.5 60.3,46 	"/>
	<polygon class="st2" points="59.9,43.1 61.4,41.5 62.9,43 61.5,44.5 	"/>
	<polygon class="st2" points="61.4,41.5 63,40 64.3,41.7 62.9,43 	"/>
	<polygon class="st2" points="63,40 64.7,38.7 65.9,40.5 64.3,41.7 	"/>
	<polygon class="st2" points="64.7,38.7 66.5,37.5 67.6,39.4 65.9,40.5 	"/>
	<polygon class="st2" points="66.5,37.5 68.4,36.5 69.3,38.5 67.6,39.4 	"/>
	<polygon class="st2" points="69.6,43 67.1,32.6 79.9,35 	"/>
	<polygon class="st2" points="83.4,12.4 79.9,12.7 80.2,15 83.6,14.7 	"/>
	<polygon class="st2" points="79.9,12.7 76.5,13.2 76.9,15.6 80.2,15 	"/>
	<polygon class="st2" points="76.5,13.2 73.1,13.9 73.6,16.2 76.9,15.6 	"/>
	<polygon class="st2" points="73.1,13.9 69.7,14.9 70.4,17.1 73.6,16.2 	"/>
	<polygon class="st2" points="69.7,14.9 66.4,16 67.2,18.2 70.4,17.1 	"/>
	<polygon class="st2" points="66.4,16 63.2,17.3 64.1,19.4 67.2,18.2 	"/>
	<polygon class="st2" points="63.2,17.3 60,18.7 61.1,20.9 64.1,19.4 	"/>
	<polygon class="st2" points="60,18.7 56.9,20.4 58.1,22.4 61.1,20.9 	"/>
	<polygon class="st2" points="56.9,20.4 54,22.2 55.3,24.2 58.1,22.4 	"/>
	<polygon class="st2" points="54,22.2 51.1,24.2 52.5,26.1 55.3,24.2 	"/>
	<polygon class="st2" points="51.1,24.2 48.4,26.4 49.9,28.2 52.5,26.1 	"/>
	<polygon class="st2" points="48.4,26.4 45.8,28.7 47.4,30.4 49.9,28.2 	"/>
	<polygon class="st2" points="45.8,28.7 43.3,31.1 45,32.8 47.4,30.4 	"/>
	<polygon class="st2" points="43.3,31.1 40.9,33.7 42.7,35.3 45,32.8 	"/>
	<polygon class="st2" points="40.9,33.7 38.8,36.4 40.6,37.9 42.7,35.3 	"/>
	<polygon class="st2" points="38.8,36.4 36.7,39.3 38.7,40.6 40.6,37.9 	"/>
	<polygon class="st2" points="36.7,39.3 34.9,42.2 36.9,43.4 38.7,40.6 	"/>
	<polygon class="st2" points="34.9,42.2 33.2,45.3 35.3,46.4 36.9,43.4 	"/>
	<polygon class="st2" points="33.2,45.3 31.7,48.4 33.8,49.4 35.3,46.4 	"/>
	<polygon class="st2" points="31.7,48.4 30.4,51.7 32.6,52.5 33.8,49.4 	"/>
	<polygon class="st2" points="30.4,51.7 29.2,54.9 31.5,55.7 32.6,52.5 	"/>
	<polygon class="st2" points="29.2,54.9 28.3,58.3 30.5,58.9 31.5,55.7 	"/>
	<polygon class="st2" points="28.3,58.3 27.5,61.7 29.8,62.2 30.5,58.9 	"/>
	<polygon class="st2" points="27.5,61.7 26.9,65.1 29.3,65.5 29.8,62.2 	"/>
	<polygon class="st2" points="26.9,65.1 26.6,68.6 28.9,68.8 29.3,65.5 	"/>
	<polygon class="st2" points="26.6,68.6 26.4,72.1 28.8,72.1 28.9,68.8 	"/>
	<polygon class="st2" points="28.8,72.1 28.6,73.1 26.3,72.4 26.4,72.1 	"/>
	<polygon class="st2" points="28.6,73.1 28.2,74 26.2,72.7 26.3,72.4 	"/>
	<polygon class="st2" points="28.2,74 27.6,74.7 26,72.9 26.2,72.7 	"/>
	<polygon class="st2" points="27.6,74.7 26.8,75.2 25.8,73.1 26,72.9 	"/>
	<polygon class="st2" points="26.8,75.2 25.9,75.5 25.5,73.2 25.8,73.1 	"/>
	<polygon class="st2" points="25.5,73.2 25.9,75.5 10.8,78.6 10.3,76.3 	"/>
	<polygon class="st2" points="10.3,76.3 9.4,76.6 10.5,78.7 10.8,78.6 	"/>
	<polygon class="st2" points="9.4,76.6 8.6,77.2 10.2,78.9 10.5,78.7 	"/>
	<polygon class="st2" points="8.6,77.2 8,77.9 10,79.2 10.2,78.9 	"/>
	<polygon class="st2" points="8,77.9 7.6,78.8 9.9,79.5 10,79.2 	"/>
	<polygon class="st2" points="7.6,78.8 7.5,79.8 9.8,79.8 9.9,79.5 	"/>
	<polygon class="st2" points="7.5,79.8 9.8,79.8 9.8,84 7.5,86.4 	"/>
	<polygon class="st2" points="7.5,86.4 9.8,84 47.3,84 47.3,86.4 	"/>
	<polygon class="st2" points="47.3,86.4 47.3,84 84.8,84 87.2,86.4 	"/>
	<polygon class="st2" points="87.2,86.4 84.8,84 84.8,15.9 87.2,15.9 	"/>
	<polygon class="st2" points="87.2,15.9 87.1,14.9 84.8,15.6 84.8,15.9 	"/>
	<polygon class="st2" points="87.1,14.9 86.7,14.1 84.7,15.3 84.8,15.6 	"/>
	<polygon class="st2" points="86.7,14.1 86.1,13.3 84.5,15 84.7,15.3 	"/>
	<polygon class="st2" points="86.1,13.3 85.3,12.8 84.2,14.9 84.5,15 	"/>
	<polygon class="st2" points="85.3,12.8 84.4,12.4 83.9,14.7 84.2,14.9 	"/>
	<polygon class="st2" points="84.4,12.4 83.4,12.4 83.6,14.7 83.9,14.7 	"/>
</g>
</svg>
